<?xml version="1.0" encoding="UTF-8"?>
<svg width="37px" height="49px" viewBox="0 0 37 49" version="1.1" xmlns="http://www.w3.org/2000/svg" xmlns:xlink="http://www.w3.org/1999/xlink">
    <title>h-point-filled</title>
    <g id="Page-1" stroke="none" stroke-width="1" fill="none" fill-rule="evenodd">
        <g id="iPhone-13-mini-Copy" transform="translate(-5, -333)" fill="#FFFFFF">
            <path d="M23.4482761,333 C32.6369777,333 42,338.335124 42,351.680851 C42,360.578002 35.816092,370.684385 23.4482761,382 C11.3329611,370.684385 5.27530352,360.578002 5.27530352,351.680851 C5.27530352,338.335124 14.2595746,333 23.4482761,333 Z M36,343 L12,343 L12,347.736842 L21.1428571,347.736842 L21.1428571,350.052632 L15.2207792,350.052632 L15.2207792,353.947368 L21.1428571,353.947368 L21.1428571,356.368421 L12,356.368421 L12,361 L36,361 L36,356.368421 L26.7532468,356.368421 L26.7532468,353.947368 L32.7792208,353.947368 L32.7792208,350.052632 L26.7532468,350.052632 L26.7532468,347.736842 L36,347.736842 L36,343 Z" id="h-point-filled"></path>
        </g>
    </g>
</svg>