<?xml version="1.0" encoding="UTF-8"?>
<svg width="39px" height="52px" viewBox="0 0 39 52" version="1.1" xmlns="http://www.w3.org/2000/svg" xmlns:xlink="http://www.w3.org/1999/xlink">
    <title>h-point-outline</title>
    <g id="Page-1" stroke="none" stroke-width="1" fill="none" fill-rule="evenodd">
        <g id="iPhone-13-mini-Copy" transform="translate(-6, -272)" stroke="#FFFFFF">
            <path d="M25.4482761,272.5 C30.5826625,272.5 35.7630906,274.134242 39.4226581,277.819281 C42.4876339,280.905591 44.5,285.434026 44.5,291.680851 C44.5,300.674102 38.3040858,310.915604 25.785789,322.368897 C12.845659,310.913416 6.77530352,300.673689 6.77530352,291.680851 C6.77530352,285.403862 8.7271809,280.862948 11.7294144,277.776812 C15.2844061,274.122469 20.3317132,272.5 25.4482761,272.5 Z M37.5,283.5 L14.5,283.5 L14.5,287.236842 L23.6428571,287.236842 L23.6428571,290.552632 L17.7207792,290.552632 L17.7207792,293.447368 L23.6428571,293.447368 L23.6428571,296.868421 L14.5,296.868421 L14.5,300.5 L37.5,300.5 L37.5,296.868421 L28.2532468,296.868421 L28.2532468,293.447368 L34.2792208,293.447368 L34.2792208,290.552632 L28.2532468,290.552632 L28.2532468,287.236842 L37.5,287.236842 L37.5,283.5 Z" id="h-point-outline"></path>
        </g>
    </g>
</svg>