<?xml version="1.0" encoding="UTF-8"?>
<svg width="37px" height="50px" viewBox="0 0 37 50" version="1.1" xmlns="http://www.w3.org/2000/svg" xmlns:xlink="http://www.w3.org/1999/xlink">
    <title>h-point-2</title>
    <g id="Page-1" stroke="none" stroke-width="1" fill="none" fill-rule="evenodd">
        <g id="iPhone-13-mini-Copy" transform="translate(-61, -332)" fill="#fff">
            <path d="M79.4482761,332 C89.6369777,332 98,340.335124 98,351.680851 C98,359.244669 91.816092,369.351052 79.4482761,382 C67.1494254,369.351052 61,359.244669 61,351.680851 C61,340.335124 69.2595746,332 79.4482761,332 Z M76.4473684,342.5 L72.5,342.5 L72.5,362.5 L76.4473684,362.5 L76.4473684,354.880952 L78.377193,354.880952 L78.377193,359.816017 L81.622807,359.816017 L81.622807,354.880952 L83.6403509,354.880952 L83.6403509,362.5 L87.5,362.5 L87.5,342.5 L83.6403509,342.5 L83.6403509,350.205628 L81.622807,350.205628 L81.622807,345.183983 L78.377193,345.183983 L78.377193,350.205628 L76.4473684,350.205628 L76.4473684,342.5 Z" id="h-point-2"></path>
        </g>
    </g>
</svg>