<?xml version="1.0" encoding="UTF-8"?>
<svg width="37px" height="50px" viewBox="0 0 37 50" version="1.1" xmlns="http://www.w3.org/2000/svg" xmlns:xlink="http://www.w3.org/1999/xlink">
    <title>h-point-1</title>
    <g id="Page-1" stroke="none" stroke-width="1" fill="none" fill-rule="evenodd">
        <g id="iPhone-13-mini-Copy" transform="translate(-5, -332)" fill="#ffffff">
            <path d="M23.4482761,332 C33.6369777,332 42,340.335124 42,351.680851 C42,359.244669 35.816092,369.351052 23.4482761,382 C11.1494254,369.351052 5,359.244669 5,351.680851 C5,340.335124 13.2595746,332 23.4482761,332 Z M34,344 L14,344 L14,347.947368 L21.6190476,347.947368 L21.6190476,349.877193 L16.6839827,349.877193 L16.6839827,353.122807 L21.6190476,353.122807 L21.6190476,355.140351 L14,355.140351 L14,359 L34,359 L34,355.140351 L26.2943723,355.140351 L26.2943723,353.122807 L31.3160173,353.122807 L31.3160173,349.877193 L26.2943723,349.877193 L26.2943723,347.947368 L34,347.947368 L34,344 Z" id="h-point-1"></path>
        </g>
    </g>
</svg>