<?xml version="1.0" encoding="UTF-8"?>
<svg width="36px" height="47px" viewBox="0 0 36 47" version="1.1" xmlns="http://www.w3.org/2000/svg" xmlns:xlink="http://www.w3.org/1999/xlink">
    <title>h-point-3</title>
    <g id="Page-1" stroke="none" stroke-width="1" fill="none" fill-rule="evenodd">
        <g id="iPhone-13-mini-Copy" transform="translate(-147, -187)" fill="#fff">
            <path d="M175.677375,220.999996 C172.871325,224.958599 169.145534,229.291933 164.5,234 C159.880371,229.291933 156.175355,224.958599 153.384952,220.999996 Z M181.775355,201.842256 C181.987117,203.016379 182.09813,204.238389 182.09813,205.5 C182.09813,208.113512 181.305526,211.049956 179.720317,214.309333 L169.12987,214.309942 L169.12987,210.812865 L178.168831,210.812865 L178.168831,205.187135 L169.12987,205.187135 L169.12987,201.842105 Z M147.318981,201.842256 L160.714286,201.842105 L160.714286,205.187135 L151.831169,205.187135 L151.831169,210.812865 L160.714286,210.812865 L160.714286,214.309942 L149.364554,214.309333 C147.788185,211.049956 147,208.113512 147,205.5 C147,204.238389 147.10964,203.016379 147.318981,201.842256 Z M164.5,187 C170.557215,187 175.934208,190.077398 179.104471,195.000156 L149.962847,195.000156 C153.104336,190.077398 158.442785,187 164.5,187 Z" id="h-point-3"></path>
        </g>
    </g>
</svg>