<?xml version="1.0" encoding="UTF-8"?>
<svg width="36px" height="47px" viewBox="0 0 36 47" version="1.1" xmlns="http://www.w3.org/2000/svg" xmlns:xlink="http://www.w3.org/1999/xlink">
    <title>h-point-4</title>
    <g id="Page-1" stroke="none" stroke-width="1" fill="none" fill-rule="evenodd">
        <g id="iPhone-13-mini-Copy" transform="translate(-93, -187)" fill="#fff">
            <path d="M107.687135,211.785714 L107.687135,220.668831 L113.312865,220.668831 L113.312865,211.785714 L116.809942,211.785714 L116.810193,227.182064 C114.939349,229.35996 112.835951,231.632605 110.5,234 C108.225382,231.681838 106.172503,229.454525 104.341361,227.318062 L104.342105,211.785714 L107.687135,211.785714 Z M123.500345,192.875218 C126.352097,196.116091 128.09813,200.496617 128.09813,205.5 C128.09813,209.133818 126.565866,213.391929 123.501336,218.274333 Z M97.5008578,192.935527 L97.5003448,218.160546 C94.5001149,213.325742 93,209.10556 93,205.5 C93,200.527585 94.7031555,196.170341 97.5008578,192.935527 Z M110.5,187 C112.719743,187 114.848136,187.413279 116.810053,188.179203 L116.809942,203.37013 L113.312865,203.37013 L113.312865,194.331169 L107.687135,194.331169 L107.687135,203.37013 L104.342105,203.37013 L104.342511,188.125263 C106.257882,187.393894 108.332941,187 110.5,187 Z" id="h-point-4"></path>
        </g>
    </g>
</svg>