<?xml version="1.0" encoding="UTF-8"?>
<svg width="39px" height="51px" viewBox="0 0 39 51" version="1.1" xmlns="http://www.w3.org/2000/svg" xmlns:xlink="http://www.w3.org/1999/xlink">
    <title>h-point-outline</title>
    <g id="Page-1" stroke="none" stroke-width="1" fill="none" fill-rule="evenodd">
        <g id="iPhone-13-mini-Copy" transform="translate(-6, -272)" stroke="#FFFFFF">
            <path d="M25.4482761,273 C34.6369777,273 44,278.335124 44,291.680851 C44,300.578002 37.816092,310.684385 25.4482761,322 C13.3329611,310.684385 7.27530352,300.578002 7.27530352,291.680851 C7.27530352,278.335124 16.2595746,273 25.4482761,273 Z M38,283 L14,283 L14,287.736842 L23.1428571,287.736842 L23.1428571,290.052632 L17.2207792,290.052632 L17.2207792,293.947368 L23.1428571,293.947368 L23.1428571,296.368421 L14,296.368421 L14,301 L38,301 L38,296.368421 L28.7532468,296.368421 L28.7532468,293.947368 L34.7792208,293.947368 L34.7792208,290.052632 L28.7532468,290.052632 L28.7532468,287.736842 L38,287.736842 L38,283 Z" id="h-point-outline"></path>
        </g>
    </g>
</svg>