<?xml version="1.0" encoding="UTF-8"?>
<svg version="1.1" xmlns="http://www.w3.org/2000/svg" width="1799" height="442">
<path d="M0,0 L35,0 L36,3 L36,169 L2,169 L1,149 L0,48 L-13,61 L-20,69 L-27,76 L-34,84 L-41,91 L-48,99 L-56,107 L-63,115 L-70,122 L-77,130 L-84,137 L-91,145 L-98,152 L-105,160 L-112,167 L-113,169 L-135,169 L-149,155 L-156,147 L-165,138 L-172,130 L-182,120 L-189,112 L-198,103 L-205,95 L-214,86 L-221,78 L-230,69 L-237,61 L-247,51 L-249,48 L-249,170 L-284,170 L-285,1 L-249,1 L-234,16 L-227,24 L-219,32 L-212,40 L-203,49 L-196,57 L-188,65 L-181,73 L-172,82 L-165,90 L-157,98 L-150,106 L-141,115 L-134,123 L-126,131 L-124,133 L-113,122 L-106,114 L-90,97 L-78,84 L-64,69 L-52,56 L-38,41 L-26,28 L-12,13 Z " fill="#000000" transform="translate(1369,0)"/>
<path d="M0,0 L25,0 L36,12 L45,23 L54,33 L63,44 L72,54 L81,65 L91,76 L100,87 L109,97 L118,108 L127,118 L136,129 L146,140 L155,151 L164,161 L169,167 L169,169 L127,169 L115,155 L103,141 L92,128 L-70,128 L-80,139 L-89,150 L-100,162 L-106,169 L-109,170 L-149,170 L-146,165 L-134,152 L-127,144 L-115,130 L-104,118 L-97,110 L-88,100 L-79,89 L-66,75 L-59,67 L-47,53 L-35,40 L-26,29 L-13,15 L-6,7 Z M14,33 L3,45 L-4,53 L-15,65 L-22,73 L-33,85 L-40,93 L-46,101 L70,101 L66,95 L54,81 L46,71 L35,58 L24,44 L15,33 Z " fill="#000000" transform="translate(519,2)"/>
<path d="M0,0 L34,0 L35,38 L35,142 L184,142 L185,168 L37,169 L0,169 Z " fill="#000000" transform="translate(788,2)"/>
<path d="M0,0 L231,0 L231,45 L142,45 L142,67 L200,67 L200,104 L142,104 L142,127 L231,127 L231,171 L0,171 L0,127 L88,127 L88,104 L31,104 L31,67 L88,67 L88,45 L0,45 Z " fill="#000000" transform="translate(1520,2)"/>
<path d="M0,0 L34,0 L35,34 L35,69 L212,69 L212,0 L246,0 L247,169 L212,169 L212,95 L35,96 L35,169 L0,169 Z " fill="#000000" transform="translate(24,3)"/>
<path d="M0,0 L24,0 L42,3 L54,7 L64,13 L64,16 L51,21 L47,20 L39,16 L28,13 L22,12 L2,12 L-14,15 L-26,20 L-35,26 L-40,33 L-41,36 L-41,46 L-38,52 L-34,57 L-24,63 L-14,67 L2,70 L22,70 L38,67 L50,61 L55,60 L67,64 L65,68 L56,74 L38,80 L25,82 L0,82 L-19,79 L-35,74 L-47,67 L-53,62 L-59,53 L-61,47 L-61,35 L-58,27 L-49,17 L-40,11 L-29,6 L-15,2 Z " fill="#000000" transform="translate(72,247)"/>
<path d="M0,0 L25,0 L44,3 L59,8 L72,15 L81,24 L85,32 L86,35 L86,47 L82,56 L75,64 L67,70 L54,76 L39,80 L25,82 L0,82 L-19,79 L-34,74 L-47,67 L-56,58 L-60,51 L-61,47 L-61,35 L-58,27 L-49,17 L-40,11 L-29,6 L-15,2 Z M2,11 L-14,14 L-26,19 L-35,25 L-41,33 L-42,36 L-42,46 L-38,54 L-30,61 L-20,66 L-5,70 L2,71 L23,71 L39,68 L51,63 L60,57 L66,49 L67,46 L67,36 L62,27 L53,20 L42,15 L30,12 L23,11 Z " fill="#000000" transform="translate(276,247)"/>
<path d="M0,0 L24,0 L42,3 L54,7 L64,13 L64,16 L51,21 L47,20 L39,16 L28,13 L22,12 L2,12 L-14,15 L-26,20 L-35,26 L-40,33 L-41,36 L-41,46 L-38,52 L-34,57 L-24,63 L-14,67 L2,70 L22,70 L38,67 L50,61 L55,60 L67,64 L65,68 L56,74 L38,80 L25,82 L0,82 L-19,79 L-35,74 L-47,67 L-53,62 L-59,53 L-61,47 L-61,35 L-58,27 L-49,17 L-40,11 L-29,6 L-15,2 Z " fill="#000000" transform="translate(1010,247)"/>
<path d="M0,0 L18,0 L18,67 L82,67 L82,78 L0,78 Z " fill="#000000" transform="translate(451,249)"/>
<path d="M0,0 L18,0 L18,67 L82,67 L82,78 L0,78 Z " fill="#000000" transform="translate(614,249)"/>
<path d="M0,0 L89,0 L89,11 L18,11 L18,32 L85,32 L85,43 L18,43 L18,67 L92,67 L92,78 L0,78 Z " fill="#000000" transform="translate(777,249)"/>
<path d="M0,0 L110,0 L110,11 L64,11 L64,78 L46,78 L46,11 L0,11 Z " fill="#000000" transform="translate(1144,249)"/>
<path d="M0,0 L18,0 L18,78 L0,78 Z " fill="#000000" transform="translate(1335,249)"/>
<path d="M0,0 L20,0 L29,12 L42,31 L58,54 L63,61 L68,56 L76,44 L92,21 L106,1 L107,0 L127,0 L123,7 L110,25 L98,42 L86,59 L73,77 L72,78 L54,78 L41,59 L30,44 L16,24 L3,6 Z " fill="#000000" transform="translate(1430,249)"/>
<path d="M0,0 L89,0 L89,11 L18,11 L18,32 L85,32 L85,43 L18,43 L18,67 L92,67 L92,78 L0,78 Z " fill="#000000" transform="translate(1634,249)"/>
</svg>
