<svg width="556" height="183" viewBox="0 0 556 183" fill="none" xmlns="http://www.w3.org/2000/svg">
<path fill-rule="evenodd" clip-rule="evenodd" d="M34.0997 143.795L34.0997 177.493L32.8423 177.493L28.6338 177.493L27.359 177.493L27.359 164.442L22.6207 164.442L22.6207 172.854L17.1722 172.854L17.1722 164.442L12.4396 164.442L12.4396 177.493L11.1823 177.493L6.96783 177.493L5.69885 177.493L5.69885 143.795L6.96783 143.795L11.1823 143.795L12.4396 143.795L12.4396 157.003L17.1722 157.003L17.1722 148.452L22.6207 148.452L22.6207 157.003L27.359 157.003L27.359 143.795L28.6338 143.795L32.8423 143.795L34.0997 143.795ZM36.4282 111.511L36.4282 112.792L36.4282 117.105L36.4282 118.386L23.4705 118.386L23.4705 123.217L31.8586 123.217L31.8586 128.771L23.4705 128.771L23.4705 133.602L36.4282 133.602L36.4282 134.9L36.4282 139.19L36.4282 140.471L3.37042 140.471L3.37042 139.19L3.37042 134.9L3.37042 133.602L16.1884 133.602L16.1884 128.771L7.93994 128.771L7.93994 123.217L16.1884 123.217L16.1884 118.386L3.37042 118.386L3.37042 117.105L3.37042 112.792L3.37042 111.511L36.4282 111.511ZM33.8436 75.3568L33.8436 109.055L32.5862 109.055L28.3602 109.055L27.1028 109.055L27.1028 96.0041L22.3704 96.0041L22.3704 104.398L16.9219 104.398L16.9219 96.0041L12.1835 96.0041L12.1835 109.055L10.9261 109.055L6.70007 109.055L5.44275 109.055L5.44274 75.3568L6.70007 75.3568L10.9261 75.3568L12.1835 75.3568L12.1835 88.5648L16.9219 88.5648L16.9219 80.0136L22.3704 80.0136L22.3704 88.5648L27.1028 88.5648L27.1028 75.3568L28.3602 75.3568L32.5862 75.3568L33.8436 75.3568ZM33.8436 38.2302L32.5862 38.2302L28.3602 38.2302L27.1028 38.2302L27.1028 25.1794L22.3704 25.1794L22.3704 33.5733L16.9219 33.5733L16.9219 25.1794L12.1835 25.1794L12.1835 38.2302L10.9261 38.2302L6.70007 38.2302L5.44274 38.2302L5.44274 4.52631L6.70007 4.52631L10.9261 4.52631L12.1835 4.52631L12.1835 17.7343L16.9219 17.7343L16.9219 9.18316L22.3704 9.18316L22.3704 17.7343L27.1028 17.7343L27.1028 4.52631L28.3602 4.52631L32.5862 4.52631L33.8436 4.52631L33.8436 38.2302ZM36.1721 48.9584L23.2202 48.9584L23.2202 53.7898L31.6025 53.7898L31.6025 59.3431L23.2202 59.3431L23.2202 64.1746L36.1721 64.1746L36.1721 65.4552L36.1721 69.7628L36.1721 71.0492L3.11431 71.0492L3.11431 69.7628L3.11431 65.4552L3.11431 64.1746L15.9322 64.1746L15.9322 59.3431L7.68383 59.3431L7.68383 53.7898L15.9322 53.7898L15.9322 48.9584L3.11431 48.9584L3.11431 47.6777L3.11431 43.3702L3.11431 42.0895L36.1721 42.0895L36.1721 43.3702L36.1721 47.6777L36.1721 48.9584ZM70.8713 146.548L70.8713 147.846L70.8713 152.136L70.8713 153.417L57.9195 153.417L57.9195 158.249L66.3076 158.249L66.3076 163.802L57.9195 163.802L57.9195 168.651L70.8713 168.651L70.8713 169.931L70.8713 174.221L70.8713 175.502L37.8194 175.502L37.8194 174.221L37.8194 169.931L37.8194 168.651L50.6374 168.651L50.6374 163.802L42.3831 163.802L42.3831 158.249L50.6374 158.249L50.6374 153.417L37.8194 153.417L37.8194 152.136L37.8194 147.846L37.8194 146.548L70.8713 146.548ZM68.5487 109.002L68.5487 142.706L67.2914 142.706L63.0652 142.706L61.8079 142.706L61.8079 129.638L57.0696 129.638L57.0696 138.049L51.6211 138.049L51.6211 129.638L46.8827 129.638L46.8827 142.706L45.6079 142.706L41.3993 142.706L40.142 142.706L40.142 109.002L41.3993 109.002L45.6079 109.002L46.8827 109.002L46.8827 122.21L51.6211 122.21L51.6211 113.659L57.0696 113.659L57.0696 122.21L61.8079 122.21L61.8079 109.002L63.0652 109.002L67.2914 109.002L68.5487 109.002ZM68.1063 73.0342L66.8315 73.0342L62.6229 73.0342L61.3655 73.0342L61.3655 59.966L56.6097 59.966L56.6097 68.3832L51.1787 68.3832L51.1787 59.966L46.4229 59.966L46.4229 73.0342L45.1714 73.0342L40.957 73.0342L39.6879 73.0342L39.6879 39.3362L40.957 39.3362L45.1714 39.3362L46.4229 39.3362L46.4229 52.5441L51.1787 52.5441L51.1787 43.993L56.6097 43.993L56.6097 52.5441L61.3655 52.5441L61.3655 39.3362L62.6229 39.3362L66.8315 39.3362L68.1063 39.3362L68.1063 73.0342ZM70.4114 36.0124L37.3595 36.0124L37.3595 34.7143L37.3595 30.4242L37.3595 29.1435L50.1775 29.1435L50.1775 24.3121L41.9291 24.3121L41.9291 18.7588L50.1775 18.7588L50.1775 13.9273L37.3595 13.9273L37.3595 12.6292L37.3595 8.3391L37.3595 7.05848L70.4114 7.05848L70.4114 8.3391L70.4114 12.6292L70.4114 13.9273L57.477 13.9273L57.477 18.7588L65.8652 18.7588L65.8652 24.3121L57.477 24.3121L57.477 29.1435L70.4114 29.1435L70.4114 30.4242L70.4114 34.7143L70.4114 36.0124ZM70.8713 77.3651L70.8713 78.6457L70.8713 82.9533L70.8713 84.2339L57.9195 84.2339L57.9195 89.0654L66.3076 89.0654L66.3076 94.6187L57.9195 94.6187L57.9195 99.4501L70.8713 99.4501L70.8713 100.731L70.8713 105.038L70.8713 106.319L37.8194 106.319L37.8194 105.038L37.8194 100.731L37.8194 99.4501L50.6374 99.4501L50.6374 94.6187L42.3831 94.6187L42.3831 89.0654L50.6374 89.0654L50.6374 84.2339L37.8194 84.2339L37.8194 82.9533L37.8194 78.6457L37.8194 77.3651L70.8713 77.3651ZM102.788 143.795L102.788 177.493L101.531 177.493L97.3221 177.493L96.0648 177.493L96.0648 164.442L91.3148 164.442L91.3148 172.854L85.8605 172.854L85.8605 164.442L81.128 164.442L81.128 177.493L79.8706 177.493L75.662 177.493L74.3872 177.493L74.3872 143.795L75.662 143.795L79.8706 143.795L81.128 143.795L81.128 157.003L85.8605 157.003L85.8605 148.452L91.3148 148.452L91.3148 157.003L96.0648 157.003L96.0648 143.795L97.3221 143.795L101.531 143.795L102.788 143.795ZM105.116 111.511L105.116 112.792L105.116 117.105L105.116 118.386L92.1763 118.386L92.1763 123.217L100.564 123.217L100.564 128.771L92.1763 128.771L92.1763 133.602L105.116 133.602L105.116 134.9L105.116 139.19L105.116 140.471L72.0588 140.471L72.0588 139.19L72.0588 134.9L72.0588 133.602L84.8767 133.602L84.8767 128.771L76.6283 128.771L76.6283 123.217L84.8767 123.217L84.8767 118.386L72.0588 118.386L72.0588 117.105L72.0588 112.792L72.0588 111.511L105.116 111.511ZM102.788 74.9901L102.788 108.694L101.531 108.694L97.3221 108.694L96.0648 108.694L96.0648 95.6257L91.3148 95.6257L91.3148 104.037L85.8605 104.037L85.8605 95.6257L81.128 95.6257L81.128 108.694L79.8706 108.694L75.662 108.694L74.3872 108.694L74.3872 74.9901L75.662 74.9901L79.8706 74.9901L81.128 74.9901L81.128 88.198L85.8605 88.198L85.8605 79.6469L91.3148 79.6469L91.3148 88.198L96.0648 88.198L96.0648 74.9901L97.3221 74.9901L101.531 74.9901L102.788 74.9901ZM102.584 38.2302L101.327 38.2302L97.1184 38.2302L95.8436 38.2302L95.8436 25.1794L91.111 25.1794L91.111 33.5733L85.6568 33.5733L85.6568 25.1794L80.9242 25.1794L80.9242 38.2302L79.6669 38.2302L75.4583 38.2302L74.1835 38.2302L74.1835 4.52631L75.4583 4.52631L79.6669 4.52631L80.9242 4.52631L80.9242 17.7343L85.6568 17.7343L85.6568 9.18316L91.111 9.18316L91.111 17.7343L95.8436 17.7343L95.8436 4.52631L97.1184 4.52631L101.327 4.52631L102.584 4.52631L102.584 38.2302ZM104.913 48.9584L91.9551 48.9584L91.9551 53.7898L100.343 53.7898L100.343 59.3431L91.9551 59.3431L91.9551 64.1746L104.913 64.1746L104.913 65.4552L104.913 69.7628L104.913 71.0492L71.855 71.0492L71.855 69.7628L71.855 65.4552L71.855 64.1746L84.673 64.1746L84.673 59.3431L76.4246 59.3431L76.4246 53.7898L84.673 53.7898L84.673 48.9584L71.855 48.9584L71.855 47.6777L71.855 43.3702L71.855 42.0895L104.913 42.0895L104.913 43.3702L104.913 47.6777L104.913 48.9584ZM139.618 146.548L139.618 147.835L139.618 152.136L139.618 153.417L126.666 153.417L126.666 158.254L135.054 158.254L135.054 163.802L126.666 163.802L126.666 168.639L139.618 168.639L139.618 169.92L139.618 174.221L139.618 175.502L106.566 175.502L106.566 174.221L106.566 169.92L106.566 168.639L119.378 168.639L119.378 163.802L111.135 163.802L111.135 158.254L119.378 158.254L119.378 153.417L106.566 153.417L106.566 152.136L106.566 147.835L106.566 146.548L139.618 146.548ZM137.295 108.997L137.295 142.695L136.032 142.695L131.818 142.695L130.554 142.695L130.554 129.626L125.816 129.626L125.816 138.038L120.368 138.038L120.368 129.626L115.629 129.626L115.629 142.695L114.366 142.695L110.158 142.695L108.894 142.695L108.894 108.997L110.158 108.997L114.366 108.997L115.629 108.997L115.629 122.205L120.368 122.205L120.368 113.653L125.816 113.653L125.816 122.205L130.554 122.205L130.554 108.997L131.818 108.997L136.032 108.997L137.295 108.997ZM137.173 73.0342L135.91 73.0342L131.701 73.0342L130.438 73.0342L130.438 59.966L125.7 59.966L125.7 68.3832L120.251 68.3832L120.251 59.966L115.513 59.966L115.513 73.0342L114.25 73.0342L110.029 73.0342L108.772 73.0342L108.772 39.3362L110.029 39.3362L114.25 39.3362L115.513 39.3362L115.513 52.5325L120.251 52.5325L120.251 43.9814L125.7 43.9814L125.7 52.5325L130.438 52.5325L130.438 39.3362L131.701 39.3362L135.91 39.3362L137.173 39.3362L137.173 73.0342ZM139.618 77.3534L139.618 78.6457L139.618 82.9475L139.618 84.2281L126.666 84.2281L126.666 89.0537L135.054 89.0537L135.054 94.6128L126.666 94.6128L126.666 99.4501L139.618 99.4501L139.618 100.731L139.618 105.032L139.618 106.313L106.566 106.313L106.566 105.032L106.566 100.731L106.566 99.4501L119.378 99.4501L119.378 94.6128L111.135 94.6128L111.135 89.0537L119.378 89.0537L119.378 84.2281L106.566 84.2281L106.566 82.9475L106.566 78.6457L106.566 77.3534L139.618 77.3534ZM139.501 36.0065L106.45 36.0065L106.45 34.7143L106.45 30.4242L106.45 29.1319L119.256 29.1319L119.256 24.3062L111.007 24.3062L111.007 18.7471L119.256 18.7471L119.256 13.9215L106.45 13.9215L106.45 12.6292L106.45 8.3391L106.45 7.04682L139.501 7.04682L139.501 8.3391L139.501 12.6292L139.501 13.9215L126.55 13.9215L126.55 18.7471L134.932 18.7471L134.932 24.3062L126.55 24.3062L126.55 29.1319L139.501 29.1319L139.501 30.4242L139.501 34.7143L139.501 36.0065ZM171.587 143.795L171.587 177.493L170.33 177.493L166.115 177.493L164.846 177.493L164.846 164.436L160.114 164.436L160.114 172.848L154.659 172.848L154.659 164.436L149.927 164.436L149.927 177.493L148.658 177.493L144.449 177.493L143.186 177.493L143.186 143.795L144.449 143.795L148.658 143.795L149.927 143.795L149.927 157.003L154.659 157.003L154.659 148.452L160.114 148.452L160.114 157.003L164.846 157.003L164.846 143.795L166.115 143.795L170.33 143.795L171.587 143.795ZM173.915 111.383L173.915 112.676L173.915 116.966L173.915 118.258L160.969 118.258L160.969 123.084L169.346 123.084L169.346 128.643L160.969 128.643L160.969 133.468L173.915 133.468L173.915 134.761L173.915 139.051L173.915 140.343L140.858 140.343L140.858 139.051L140.858 134.761L140.858 133.468L153.676 133.468L153.676 128.643L145.427 128.643L145.427 123.084L153.676 123.084L153.676 118.258L140.858 118.258L140.858 116.966L140.858 112.676L140.858 111.383L173.915 111.383ZM170.824 38.2302L169.561 38.2302L165.347 38.2302L164.084 38.2302L164.084 25.1677L159.345 25.1677L159.345 33.5733L153.897 33.5733L153.897 25.1677L149.159 25.1677L149.159 38.2302L147.895 38.2302L143.687 38.2302L142.424 38.2302L142.424 4.52631L143.687 4.52631L147.895 4.52631L149.159 4.52631L149.159 17.7343L153.897 17.7343L153.897 9.18315L159.345 9.18315L159.345 17.7343L164.084 17.7343L164.084 4.52631L165.347 4.52631L169.561 4.52631L170.824 4.52631L170.824 38.2302ZM171.587 74.9843L171.587 108.682L170.33 108.682L166.115 108.682L164.846 108.682L164.846 95.6257L160.114 95.6257L160.114 104.037L154.659 104.037L154.659 95.6257L149.927 95.6257L149.927 108.682L148.658 108.682L144.449 108.682L143.186 108.682L143.186 74.9843L144.449 74.9843L148.658 74.9843L149.927 74.9843L149.927 88.1922L154.659 88.1922L154.659 79.6411L160.114 79.6411L160.114 88.1922L164.846 88.1922L164.846 74.9843L166.115 74.9843L170.33 74.9843L171.587 74.9843ZM173.147 48.9525L160.195 48.9525L160.195 53.7898L168.583 53.7898L168.583 59.3431L160.195 59.3431L160.195 64.1746L173.147 64.1746L173.147 65.4552L173.147 69.757L173.147 71.0492L140.095 71.0492L140.095 69.757L140.095 65.4552L140.095 64.1746L152.913 64.1746L152.913 59.3431L144.665 59.3431L144.665 53.7898L152.913 53.7898L152.913 48.9525L140.095 48.9525L140.095 47.6719L140.095 43.3702L140.095 42.0895L173.147 42.0895L173.147 43.3701L173.147 47.6719L173.147 48.9525ZM207.794 146.548L207.794 147.835L207.794 152.136L207.794 153.417L194.836 153.417L194.836 158.254L203.224 158.254L203.224 163.802L194.836 163.802L194.836 168.639L207.794 168.639L207.794 169.92L207.794 174.221L207.794 175.502L174.736 175.502L174.736 174.221L174.736 169.92L174.736 168.639L187.548 168.639L187.548 163.802L179.294 163.802L179.294 158.254L187.548 158.254L187.548 153.417L174.736 153.417L174.736 152.136L174.736 147.835L174.736 146.548L207.794 146.548ZM205.466 108.997L205.466 142.695L204.202 142.695L199.988 142.695L198.725 142.695L198.725 129.626L193.986 129.626L193.986 138.038L188.538 138.038L188.538 129.626L183.805 129.626L183.805 142.695L182.536 142.695L178.322 142.695L177.065 142.695L177.065 108.997L178.322 108.997L182.536 108.997L183.805 108.997L183.805 122.205L188.538 122.205L188.538 113.653L193.986 113.653L193.986 122.205L198.725 122.205L198.725 108.997L199.988 108.997L204.202 108.997L205.466 108.997ZM205.017 73.0342L203.748 73.0342L199.54 73.0342L198.277 73.0342L198.277 59.966L193.538 59.966L193.538 68.3832L188.09 68.3832L188.09 59.966L183.351 59.966L183.351 73.0342L182.088 73.0342L177.88 73.0342L176.611 73.0342L176.611 39.3362L177.88 39.3362L182.088 39.3362L183.351 39.3362L183.351 52.5325L188.09 52.5325L188.09 43.9814L193.538 43.9814L193.538 52.5325L198.277 52.5325L198.277 39.3362L199.54 39.3362L203.748 39.3362L205.017 39.3362L205.017 73.0342ZM207.794 77.3534L207.794 78.6457L207.794 82.9474L207.794 84.2281L194.836 84.2281L194.836 89.0537L203.224 89.0537L203.224 94.6128L194.836 94.6128L194.836 99.4501L207.794 99.4501L207.794 100.731L207.794 105.032L207.794 106.313L174.736 106.313L174.736 105.032L174.736 100.731L174.736 99.4501L187.548 99.4501L187.548 94.6128L179.294 94.6128L179.294 89.0537L187.548 89.0537L187.548 84.2281L174.736 84.2281L174.736 82.9475L174.736 78.6457L174.736 77.3534L207.794 77.3534ZM207.34 36.0065L174.288 36.0065L174.288 34.7143L174.288 30.4241L174.288 29.1319L187.094 29.1319L187.094 24.3062L178.852 24.3062L178.852 18.7471L187.094 18.7471L187.094 13.9215L174.288 13.9215L174.288 12.6292L174.288 8.3391L174.288 7.04682L207.34 7.04681L207.34 8.3391L207.34 12.6292L207.34 13.9215L194.388 13.9215L194.388 18.7471L202.776 18.7471L202.776 24.3062L194.388 24.3062L194.388 29.1319L207.34 29.1319L207.34 30.4241L207.34 34.7142L207.34 36.0065ZM239.047 143.795L239.047 177.493L237.778 177.493L233.57 177.493L232.306 177.493L232.306 164.436L227.568 164.436L227.568 172.848L222.12 172.848L222.12 164.436L217.381 164.436L217.381 177.493L216.118 177.493L211.898 177.493L210.64 177.493L210.64 143.795L211.898 143.795L216.118 143.795L217.381 143.795L217.381 157.003L222.12 157.003L222.12 148.452L227.568 148.452L227.568 157.003L232.306 157.003L232.306 143.795L233.57 143.795L237.778 143.795L239.047 143.795ZM241.37 111.511L241.37 112.792L241.37 117.094L241.37 118.386L228.418 118.386L228.418 123.217L236.806 123.217L236.806 128.771L228.418 128.771L228.418 133.602L241.37 133.602L241.37 134.889L241.37 139.185L241.37 140.471L208.318 140.471L208.318 139.185L208.318 134.889L208.318 133.602L221.124 133.602L221.124 128.771L212.882 128.771L212.882 123.217L221.124 123.217L221.124 118.386L208.318 118.386L208.318 117.094L208.318 112.792L208.318 111.511L241.37 111.511ZM238.785 75.3568L238.785 109.055L237.516 109.055L233.308 109.055L232.044 109.055L232.044 95.9982L227.306 95.9982L227.306 104.398L221.858 104.398L221.858 95.9982L217.119 95.9982L217.119 109.055L215.856 109.055L211.647 109.055L210.379 109.055L210.379 75.3568L211.647 75.3568L215.856 75.3568L217.119 75.3568L217.119 88.5648L221.858 88.5648L221.858 80.0136L227.306 80.0136L227.306 88.5648L232.044 88.5648L232.044 75.3568L233.308 75.3568L237.516 75.3568L238.785 75.3568ZM238.785 38.2302L237.516 38.2302L233.308 38.2302L232.044 38.2302L232.044 25.1677L227.306 25.1677L227.306 33.5733L221.858 33.5733L221.858 25.1677L217.119 25.1677L217.119 38.2302L215.856 38.2302L211.647 38.2302L210.379 38.2302L210.379 4.52631L211.647 4.52631L215.856 4.52631L217.119 4.52631L217.119 17.7343L221.858 17.7343L221.858 9.18315L227.306 9.18315L227.306 17.7343L232.044 17.7343L232.044 4.52631L233.308 4.5263L237.516 4.5263L238.785 4.5263L238.785 38.2302ZM241.108 48.9525L228.156 48.9525L228.156 53.7898L236.544 53.7898L236.544 59.3431L228.156 59.3431L228.156 64.1746L241.108 64.1746L241.108 65.4552L241.108 69.757L241.108 71.0492L208.056 71.0492L208.056 69.757L208.056 65.4552L208.056 64.1746L220.874 64.1746L220.874 59.3431L212.62 59.3431L212.62 53.7898L220.874 53.7898L220.874 48.9525L208.056 48.9525L208.056 47.6719L208.056 43.3701L208.056 42.0895L241.108 42.0895L241.108 43.3701L241.108 47.6719L241.108 48.9525ZM274.8 146.548L274.8 147.835L274.8 152.136L274.8 153.417L261.848 153.417L261.848 158.254L270.23 158.254L270.23 163.802L261.848 163.802L261.848 168.639L274.8 168.639L274.8 169.92L274.8 174.221L274.8 175.502L241.742 175.502L241.742 174.221L241.742 169.92L241.742 168.639L254.554 168.639L254.554 163.802L246.312 163.802L246.312 158.254L254.554 158.254L254.554 153.417L241.742 153.417L241.742 152.136L241.742 147.835L241.742 146.548L274.8 146.548ZM272.472 108.997L272.472 142.695L271.208 142.695L267 142.695L265.731 142.695L265.731 129.626L260.998 129.626L260.998 138.038L255.55 138.038L255.55 129.626L250.811 129.626L250.811 142.695L249.548 142.695L245.334 142.695L244.071 142.695L244.071 108.997L245.334 108.997L249.548 108.997L250.811 108.997L250.811 122.205L255.55 122.205L255.55 113.653L260.998 113.653L260.998 122.205L265.731 122.205L265.731 108.997L267 108.997L271.208 108.997L272.472 108.997ZM272.023 73.0342L270.76 73.0342L266.546 73.0342L265.283 73.0342L265.283 59.9659L260.544 59.9659L260.544 68.3832L255.096 68.3832L255.096 59.9659L250.363 59.9659L250.363 73.0342L249.094 73.0342L244.886 73.0342L243.622 73.0342L243.622 39.3362L244.886 39.3362L249.094 39.3362L250.363 39.3362L250.363 52.5325L255.096 52.5325L255.096 43.9814L260.544 43.9814L260.544 52.5325L265.283 52.5325L265.283 39.3362L266.546 39.3362L270.76 39.3362L272.023 39.3362L272.023 73.0342ZM274.8 77.3534L274.8 78.6457L274.8 82.9474L274.8 84.2281L261.848 84.2281L261.848 89.0537L270.23 89.0537L270.23 94.6128L261.848 94.6128L261.848 99.4501L274.8 99.4501L274.8 100.731L274.8 105.032L274.8 106.313L241.742 106.313L241.742 105.032L241.742 100.731L241.742 99.4501L254.554 99.4501L254.554 94.6128L246.312 94.6128L246.312 89.0537L254.554 89.0537L254.554 84.2281L241.742 84.2281L241.742 82.9474L241.742 78.6457L241.742 77.3534L274.8 77.3534ZM274.352 36.0065L241.294 36.0065L241.294 34.7142L241.294 30.4241L241.294 29.1319L254.112 29.1319L254.112 24.3062L245.864 24.3062L245.864 18.7471L254.112 18.7471L254.112 13.9215L241.294 13.9215L241.294 12.6292L241.294 8.33909L241.294 7.04681L274.352 7.04681L274.352 8.33909L274.352 12.6292L274.352 13.9215L261.394 13.9215L261.394 18.7471L269.782 18.7471L269.782 24.3062L261.394 24.3062L261.394 29.1319L274.352 29.1319L274.352 30.4241L274.352 34.7142L274.352 36.0065ZM307.049 143.795L307.049 177.493L305.78 177.493L301.571 177.493L300.308 177.493L300.308 164.436L295.57 164.436L295.57 172.848L290.121 172.848L290.121 164.436L285.383 164.436L285.383 177.493L284.12 177.493L279.911 177.493L278.642 177.493L278.642 143.795L279.911 143.795L284.12 143.795L285.383 143.795L285.383 157.003L290.121 157.003L290.121 148.452L295.57 148.452L295.57 157.003L300.308 157.003L300.308 143.795L301.571 143.795L305.78 143.795L307.049 143.795ZM309.371 111.511L309.371 112.792L309.371 117.094L309.371 118.386L296.419 118.386L296.419 123.217L304.808 123.217L304.808 128.771L296.419 128.771L296.419 133.602L309.371 133.602L309.371 134.889L309.371 139.185L309.371 140.471L276.319 140.471L276.319 139.185L276.319 134.889L276.319 133.602L289.126 133.602L289.126 128.771L280.883 128.771L280.883 123.217L289.126 123.217L289.126 118.386L276.319 118.386L276.319 117.094L276.319 112.792L276.319 111.511L309.371 111.511ZM307.049 74.9843L307.049 108.682L305.78 108.682L301.571 108.682L300.308 108.682L300.308 95.6257L295.57 95.6257L295.57 104.037L290.121 104.037L290.121 95.6257L285.383 95.6257L285.383 108.682L284.12 108.682L279.911 108.682L278.642 108.682L278.642 74.9843L279.911 74.9843L284.12 74.9843L285.383 74.9843L285.383 88.1922L290.121 88.1922L290.121 79.6411L295.57 79.6411L295.57 88.1922L300.308 88.1922L300.308 74.9843L301.571 74.9843L305.78 74.9843L307.049 74.9843ZM306.845 38.2302L305.576 38.2302L301.361 38.2302L300.104 38.2302L300.104 25.1677L295.36 25.1677L295.36 33.5733L289.917 33.5733L289.917 25.1677L285.173 25.1677L285.173 38.2302L283.916 38.2302L279.696 38.2302L278.438 38.2302L278.438 4.5263L279.696 4.5263L283.916 4.5263L285.173 4.5263L285.173 17.7343L289.917 17.7343L289.917 9.18315L295.36 9.18315L295.36 17.7343L300.104 17.7343L300.104 4.5263L301.361 4.5263L305.576 4.5263L306.845 4.5263L306.845 38.2302ZM309.167 48.9525L296.216 48.9525L296.216 53.7898L304.604 53.7898L304.604 59.3431L296.216 59.3431L296.216 64.1746L309.167 64.1746L309.167 65.4552L309.167 69.757L309.167 71.0492L276.116 71.0492L276.116 69.757L276.116 65.4552L276.116 64.1746L288.922 64.1746L288.922 59.3431L280.673 59.3431L280.673 53.7898L288.922 53.7898L288.922 48.9525L276.116 48.9525L276.116 47.6719L276.116 43.3701L276.116 42.0895L309.167 42.0895L309.167 43.3701L309.167 47.6719L309.167 48.9525ZM343.657 146.548L343.657 147.835L343.657 152.136L343.657 153.417L330.705 153.417L330.705 158.254L339.093 158.254L339.093 163.802L330.705 163.802L330.705 168.639L343.657 168.639L343.657 169.92L343.657 174.221L343.657 175.502L310.605 175.502L310.605 174.221L310.605 169.92L310.605 168.639L323.412 168.639L323.412 163.802L315.169 163.802L315.169 158.254L323.412 158.254L323.412 153.417L310.605 153.417L310.605 152.136L310.605 147.835L310.605 146.548L343.657 146.548ZM341.335 108.997L341.335 142.695L340.066 142.695L335.857 142.695L334.594 142.695L334.594 129.626L329.855 129.626L329.855 138.038L324.407 138.038L324.407 129.626L319.669 129.626L319.669 142.695L318.405 142.695L314.185 142.695L312.928 142.695L312.928 108.997L314.185 108.997L318.405 108.997L319.669 108.997L319.669 122.205L324.407 122.205L324.407 113.653L329.855 113.653L329.855 122.205L334.594 122.205L334.594 108.997L335.857 108.997L340.066 108.997L341.335 108.997ZM341.212 73.0342L339.949 73.0342L335.729 73.0342L334.472 73.0342L334.472 59.9659L329.739 59.9659L329.739 68.3832L324.285 68.3832L324.285 59.9659L319.541 59.9659L319.541 73.0342L318.283 73.0342L314.069 73.0342L312.811 73.0342L312.811 39.3362L314.069 39.3362L318.283 39.3362L319.541 39.3362L319.541 52.5325L324.285 52.5325L324.285 43.9814L329.739 43.9814L329.739 52.5325L334.472 52.5325L334.472 39.3362L335.729 39.3362L339.949 39.3362L341.212 39.3362L341.212 73.0342ZM343.657 77.3534L343.657 78.6457L343.657 82.9474L343.657 84.2281L330.705 84.2281L330.705 89.0537L339.093 89.0537L339.093 94.6128L330.705 94.6128L330.705 99.4501L343.657 99.4501L343.657 100.731L343.657 105.032L343.657 106.313L310.605 106.313L310.605 105.032L310.605 100.731L310.605 99.4501L323.412 99.4501L323.412 94.6128L315.169 94.6128L315.169 89.0537L323.412 89.0537L323.412 84.2281L310.605 84.2281L310.605 82.9474L310.605 78.6457L310.605 77.3534L343.657 77.3534ZM343.541 36.0065L310.483 36.0065L310.483 34.7142L310.483 30.4241L310.483 29.1319L323.295 29.1319L323.295 24.3062L315.041 24.3062L315.041 18.7471L323.295 18.7471L323.295 13.9215L310.483 13.9215L310.483 12.6292L310.483 8.33909L310.483 7.04681L343.541 7.04681L343.541 8.33909L343.541 12.6292L343.541 13.9215L330.583 13.9215L330.583 18.7471L338.971 18.7471L338.971 24.3062L330.583 24.3062L330.583 29.1319L343.541 29.1319L343.541 30.4241L343.541 34.7142L343.541 36.0065ZM375.743 143.795L375.743 177.493L374.48 177.493L370.271 177.493L369.002 177.493L369.002 164.436L364.27 164.436L364.27 172.848L358.821 172.848L358.821 164.436L354.083 164.436L354.083 177.493L352.82 177.493L348.605 177.493L347.342 177.493L347.342 143.795L348.605 143.795L352.82 143.795L354.083 143.795L354.083 157.003L358.821 157.003L358.821 148.452L364.27 148.452L364.27 157.003L369.002 157.003L369.002 143.795L370.271 143.795L374.48 143.795L375.743 143.795ZM378.071 111.511L378.071 112.792L378.071 117.094L378.071 118.386L365.119 118.386L365.119 123.217L373.502 123.217L373.502 128.771L365.119 128.771L365.119 133.602L378.071 133.602L378.071 134.889L378.071 139.185L378.071 140.471L345.013 140.471L345.013 139.185L345.013 134.889L345.013 133.602L357.826 133.602L357.826 128.771L349.583 128.771L349.583 123.217L357.826 123.217L357.826 118.386L345.013 118.386L345.013 117.094L345.013 112.792L345.013 111.511L378.071 111.511ZM375.743 74.9843L375.743 108.682L374.48 108.682L370.271 108.682L369.002 108.682L369.002 95.6257L364.27 95.6257L364.27 104.037L358.821 104.037L358.821 95.6257L354.083 95.6257L354.083 108.682L352.82 108.682L348.605 108.682L347.342 108.682L347.342 74.9843L348.605 74.9843L352.819 74.9843L354.083 74.9843L354.083 88.1922L358.821 88.1922L358.821 79.6411L364.27 79.6411L364.27 88.1922L369.002 88.1922L369.002 74.9843L370.271 74.9843L374.48 74.9843L375.743 74.9843ZM375.533 38.2302L374.276 38.2302L370.056 38.2302L368.798 38.2302L368.798 25.1677L364.054 25.1677L364.054 33.5733L358.617 33.5733L358.617 25.1677L353.867 25.1677L353.867 38.2302L352.616 38.2302L348.396 38.2302L347.132 38.2302L347.132 4.5263L348.396 4.5263L352.616 4.5263L353.867 4.5263L353.867 17.7343L358.617 17.7343L358.617 9.18314L364.054 9.18314L364.054 17.7343L368.798 17.7343L368.798 4.5263L370.056 4.5263L374.276 4.5263L375.533 4.5263L375.533 38.2302ZM377.867 48.9525L364.916 48.9525L364.916 53.7898L373.298 53.7898L373.298 59.3431L364.916 59.3431L364.916 64.1746L377.867 64.1746L377.867 65.4552L377.867 69.757L377.867 71.0492L344.804 71.0492L344.804 69.757L344.804 65.4552L344.804 64.1746L357.622 64.1746L357.622 59.3431L349.373 59.3431L349.373 53.7898L357.622 53.7898L357.622 48.9525L344.804 48.9525L344.804 47.6719L344.804 43.3701L344.804 42.0895L377.867 42.0895L377.867 43.3701L377.867 47.6719L377.867 48.9525ZM412.2 146.548L412.2 147.846L412.2 152.136L412.2 153.417L399.248 153.417L399.248 158.248L407.636 158.248L407.636 163.802L399.248 163.802L399.248 168.651L412.2 168.651L412.2 169.931L412.2 174.221L412.2 175.502L379.148 175.502L379.148 174.221L379.148 169.931L379.148 168.651L391.966 168.651L391.966 163.802L383.718 163.802L383.718 158.248L391.966 158.248L391.966 153.417L379.148 153.417L379.148 152.136L379.148 147.846L379.148 146.548L412.2 146.548ZM409.877 109.002L409.877 142.706L408.62 142.706L404.411 142.706L403.137 142.706L403.137 129.638L398.398 129.638L398.398 138.049L392.95 138.049L392.95 129.638L388.211 129.638L388.211 142.706L386.96 142.706L382.746 142.706L381.477 142.706L381.477 109.002L382.746 109.002L386.96 109.002L388.211 109.002L388.211 122.21L392.95 122.21L392.95 113.659L398.398 113.659L398.398 122.21L403.137 122.21L403.137 109.002L404.411 109.002L408.62 109.002L409.877 109.002ZM409.01 73.0342L407.753 73.0342L403.527 73.0342L402.269 73.0342L402.269 59.9659L397.537 59.9659L397.537 68.3832L392.082 68.3832L392.082 59.9659L387.35 59.9659L387.35 73.0342L386.075 73.0342L381.867 73.0342L380.609 73.0342L380.609 39.3362L381.867 39.3362L386.075 39.3362L387.35 39.3362L387.35 52.5441L392.082 52.5441L392.082 43.993L397.537 43.993L397.537 52.5441L402.269 52.5441L402.269 39.3362L403.527 39.3362L407.753 39.3362L409.01 39.3362L409.01 73.0342ZM412.2 77.3651L412.2 78.6457L412.2 82.9533L412.2 84.2339L399.248 84.2339L399.248 89.0654L407.636 89.0654L407.636 94.6186L399.248 94.6186L399.248 99.4501L412.2 99.4501L412.2 100.731L412.2 105.038L412.2 106.319L379.148 106.319L379.148 105.038L379.148 100.731L379.148 99.4501L391.966 99.4501L391.966 94.6186L383.718 94.6186L383.718 89.0654L391.966 89.0654L391.966 84.2339L379.148 84.2339L379.148 82.9533L379.148 78.6457L379.148 77.3651L412.2 77.3651ZM411.338 35.8726L378.281 35.8726L378.281 34.592L378.281 30.3019L378.281 29.0038L391.099 29.0038L391.099 24.1723L382.85 24.1723L382.85 18.6191L391.099 18.6191L391.099 13.7876L378.281 13.7876L378.281 12.507L378.281 8.21684L378.281 6.91875L411.338 6.91875L411.338 8.21683L411.338 12.5069L411.338 13.7876L398.381 13.7876L398.381 18.6191L406.769 18.6191L406.769 24.1723L398.381 24.1723L398.381 29.0038L411.338 29.0038L411.338 30.3019L411.338 34.592L411.338 35.8726ZM443.709 143.795L443.709 177.493L442.44 177.493L438.226 177.493L436.974 177.493L436.974 164.442L432.236 164.442L432.236 172.853L426.788 172.853L426.788 164.442L422.049 164.442L422.049 177.493L420.774 177.493L416.566 177.493L415.308 177.493L415.308 143.795L416.566 143.795L420.774 143.795L422.049 143.795L422.049 157.003L426.788 157.003L426.788 148.452L432.236 148.452L432.236 157.003L436.974 157.003L436.974 143.795L438.226 143.795L442.44 143.795L443.709 143.795ZM446.038 111.395L446.038 112.676L446.038 116.966L446.038 118.264L433.086 118.264L433.086 123.095L441.468 123.095L441.468 128.648L433.086 128.648L433.086 133.48L446.038 133.48L446.038 134.761L446.038 139.051L446.038 140.349L412.986 140.349L412.986 139.051L412.986 134.761L412.986 133.48L425.798 133.48L425.798 128.648L417.55 128.648L417.55 123.095L425.798 123.095L425.798 118.264L412.986 118.264L412.986 116.966L412.986 112.676L412.986 111.395L446.038 111.395ZM479.974 146.548L479.974 147.846L479.974 152.136L479.974 153.417L467.023 153.417L467.023 158.248L475.405 158.248L475.405 163.802L467.023 163.802L467.023 168.651L479.974 168.651L479.974 169.931L479.974 174.221L479.974 175.502L446.923 175.502L446.923 174.221L446.923 169.931L446.923 168.651L459.723 168.651L459.723 163.802L451.486 163.802L451.486 158.248L459.723 158.248L459.723 153.417L446.923 153.417L446.923 152.136L446.923 147.846L446.923 146.548L479.974 146.548ZM443.709 74.9901L443.709 108.694L442.44 108.694L438.226 108.694L436.974 108.694L436.974 95.6257L432.236 95.6257L432.236 104.037L426.788 104.037L426.788 95.6257L422.049 95.6257L422.049 108.694L420.774 108.694L416.566 108.694L415.308 108.694L415.308 74.9901L416.566 74.9901L420.774 74.9901L422.049 74.9901L422.049 88.198L426.788 88.198L426.788 79.6469L432.236 79.6469L432.236 88.198L436.974 88.198L436.974 74.9901L438.226 74.9901L442.44 74.9901L443.709 74.9901ZM442.947 38.2302L441.672 38.2302L437.463 38.2302L436.206 38.2302L436.206 25.1794L431.473 25.1794L431.473 33.5733L426.019 33.5733L426.019 25.1794L421.287 25.1794L421.287 38.2302L420.012 38.2302L415.803 38.2302L414.546 38.2302L414.546 4.5263L415.803 4.5263L420.012 4.5263L421.287 4.5263L421.287 17.7343L426.019 17.7343L426.019 9.18314L431.473 9.18314L431.473 17.7343L436.206 17.7343L436.206 4.5263L437.463 4.5263L441.672 4.5263L442.947 4.5263L442.947 38.2302ZM445.275 48.9583L432.318 48.9583L432.318 53.7898L440.706 53.7898L440.706 59.3431L432.318 59.3431L432.318 64.1746L445.275 64.1746L445.275 65.4552L445.275 69.7628L445.275 71.0492L412.217 71.0492L412.217 69.7628L412.217 65.4552L412.217 64.1746L425.035 64.1746L425.035 59.3431L416.787 59.3431L416.787 53.7898L425.035 53.7898L425.035 48.9583L412.217 48.9583L412.217 47.6777L412.217 43.3701L412.217 42.0895L445.275 42.0895L445.275 43.3701L445.275 47.6777L445.275 48.9583ZM511.891 143.795L511.891 177.493L510.634 177.493L506.425 177.493L505.15 177.493L505.15 164.442L500.412 164.442L500.412 172.853L494.964 172.853L494.964 164.442L490.231 164.442L490.231 177.493L488.974 177.493L484.759 177.493L483.49 177.493L483.49 143.795L484.759 143.795L488.974 143.795L490.231 143.795L490.231 157.003L494.964 157.003L494.964 148.452L500.412 148.452L500.412 157.003L505.15 157.003L505.15 143.795L506.425 143.795L510.634 143.795L511.891 143.795ZM477.646 109.002L477.646 142.706L476.377 142.706L472.163 142.706L470.911 142.706L470.911 129.638L466.173 129.638L466.173 138.049L460.724 138.049L460.724 129.638L455.986 129.638L455.986 142.706L454.711 142.706L450.502 142.706L449.245 142.706L449.245 109.002L450.502 109.002L454.711 109.002L455.986 109.002L455.986 122.21L460.724 122.21L460.724 113.659L466.173 113.659L466.173 122.21L470.911 122.21L470.911 109.002L472.163 109.002L476.377 109.002L477.646 109.002ZM548.663 146.548L548.663 147.846L548.663 152.136L548.663 153.417L535.711 153.417L535.711 158.248L544.099 158.248L544.099 163.802L535.711 163.802L535.711 168.651L548.663 168.651L548.663 169.931L548.663 174.221L548.663 175.502L515.611 175.502L515.611 174.221L515.611 169.931L515.611 168.651L528.429 168.651L528.429 163.802L520.175 163.802L520.175 158.248L528.429 158.248L528.429 153.417L515.611 153.417L515.611 152.136L515.611 147.846L515.611 146.548L548.663 146.548ZM479.974 77.3651L479.974 78.6457L479.974 82.9533L479.974 84.2339L467.023 84.2339L467.023 89.0653L475.405 89.0653L475.405 94.6186L467.023 94.6186L467.023 99.4501L479.974 99.4501L479.974 100.731L479.974 105.038L479.974 106.319L446.923 106.319L446.923 105.038L446.923 100.731L446.923 99.4501L459.723 99.4501L459.723 94.6186L451.486 94.6186L451.486 89.0654L459.723 89.0653L459.723 84.2339L446.923 84.2339L446.923 82.9533L446.923 78.6457L446.923 77.3651L479.974 77.3651ZM477.192 73.0342L475.935 73.0342L471.726 73.0342L470.451 73.0342L470.451 59.9659L465.713 59.9659L465.713 68.3832L460.264 68.3832L460.264 59.9659L455.526 59.9659L455.526 73.0342L454.269 73.0342L450.06 73.0342L448.785 73.0342L448.785 39.3362L450.06 39.3362L454.269 39.3362L455.526 39.3362L455.526 52.5441L460.264 52.5441L460.264 43.993L465.713 43.993L465.713 52.5441L470.451 52.5441L470.451 39.3362L471.726 39.3362L475.935 39.3362L477.192 39.3362L477.192 73.0342ZM479.515 36.0123L446.463 36.0123L446.463 34.7142L446.463 30.4241L446.463 29.1435L459.281 29.1435L459.281 24.312L451.026 24.312L451.026 18.7588L459.281 18.7588L459.281 13.9273L446.463 13.9273L446.463 12.6292L446.463 8.33909L446.463 7.05846L479.515 7.05846L479.515 8.33908L479.515 12.6292L479.515 13.9273L466.563 13.9273L466.563 18.7588L474.951 18.7588L474.951 24.312L466.563 24.312L466.563 29.1435L479.515 29.1435L479.515 30.4241L479.515 34.7142L479.515 36.0123ZM514.22 111.511L514.22 112.792L514.22 117.105L514.22 118.386L501.262 118.386L501.262 123.217L509.65 123.217L509.65 128.771L501.262 128.771L501.262 133.602L514.22 133.602L514.22 134.9L514.22 139.19L514.22 140.471L481.162 140.471L481.162 139.19L481.162 134.9L481.162 133.602L493.98 133.602L493.98 128.771L485.731 128.771L485.731 123.217L493.98 123.217L493.98 118.386L481.162 118.386L481.162 117.105L481.162 112.792L481.162 111.511L514.22 111.511ZM546.34 109.002L546.34 142.706L545.083 142.706L540.851 142.706L539.599 142.706L539.599 129.638L534.861 129.638L534.861 138.049L529.413 138.049L529.413 129.638L524.674 129.638L524.674 142.706L523.399 142.706L519.191 142.706L517.933 142.706L517.933 109.002L519.191 109.002L523.399 109.002L524.674 109.002L524.674 122.21L529.413 122.21L529.413 113.659L534.861 113.659L534.861 122.21L539.599 122.21L539.599 109.002L540.851 109.002L545.083 109.002L546.34 109.002ZM511.635 75.3568L511.635 109.055L510.378 109.055L506.152 109.055L504.894 109.055L504.894 96.004L500.162 96.004L500.162 104.398L494.713 104.398L494.713 96.004L489.975 96.004L489.975 109.055L488.718 109.055L484.492 109.055L483.234 109.055L483.234 75.3568L484.492 75.3568L488.718 75.3568L489.975 75.3568L489.975 88.5647L494.713 88.5647L494.713 80.0136L500.162 80.0136L500.162 88.5647L504.894 88.5647L504.894 75.3568L506.152 75.3568L510.378 75.3568L511.635 75.3568ZM511.635 38.2302L510.378 38.2302L506.152 38.2302L504.894 38.2302L504.894 25.1794L500.162 25.1794L500.162 33.5733L494.713 33.5733L494.713 25.1794L489.975 25.1794L489.975 38.2302L488.718 38.2302L484.492 38.2302L483.234 38.2302L483.234 4.52629L484.492 4.52629L488.718 4.52629L489.975 4.52629L489.975 17.7343L494.713 17.7343L494.713 9.18314L500.162 9.18314L500.162 17.7343L504.894 17.7343L504.894 4.52629L506.152 4.52629L510.378 4.52629L511.635 4.52629L511.635 38.2302ZM513.964 48.9583L501.012 48.9583L501.012 53.7898L509.394 53.7898L509.394 59.3431L501.012 59.3431L501.012 64.1745L513.964 64.1745L513.964 65.4552L513.964 69.7628L513.964 71.0492L480.906 71.0492L480.906 69.7628L480.906 65.4552L480.906 64.1745L493.724 64.1745L493.724 59.3431L485.475 59.3431L485.475 53.7898L493.724 53.7898L493.724 48.9583L480.906 48.9583L480.906 47.6777L480.906 43.3701L480.906 42.0895L513.964 42.0895L513.964 43.3701L513.964 47.6777L513.964 48.9583ZM548.663 77.3651L548.663 78.6457L548.663 82.9533L548.663 84.2339L535.711 84.2339L535.711 89.0653L544.099 89.0653L544.099 94.6186L535.711 94.6186L535.711 99.4501L548.663 99.4501L548.663 100.731L548.663 105.038L548.663 106.319L515.611 106.319L515.611 105.038L515.611 100.731L515.611 99.4501L528.429 99.4501L528.429 94.6186L520.175 94.6186L520.175 89.0653L528.429 89.0653L528.429 84.2339L515.611 84.2339L515.611 82.9533L515.611 78.6457L515.611 77.3651L548.663 77.3651ZM548.203 36.0123L515.151 36.0123L515.151 34.7142L515.151 30.4241L515.151 29.1435L527.969 29.1435L527.969 24.312L519.715 24.312L519.715 18.7588L527.969 18.7588L527.969 13.9273L515.151 13.9273L515.151 12.6292L515.151 8.33908L515.151 7.05846L548.203 7.05846L548.203 8.33908L548.203 12.6292L548.203 13.9273L535.269 13.9273L535.269 18.7588L543.657 18.7588L543.657 24.312L535.269 24.312L535.269 29.1435L548.203 29.1435L548.203 30.4241L548.203 34.7142L548.203 36.0123ZM545.898 73.0342L544.623 73.0342L540.414 73.0342L539.157 73.0342L539.157 59.9659L534.401 59.9659L534.401 68.3832L528.97 68.3832L528.97 59.9659L524.214 59.9659L524.214 73.0342L522.963 73.0342L518.748 73.0342L517.474 73.0342L517.474 39.3362L518.748 39.3362L522.963 39.3362L524.214 39.3362L524.214 52.5441L528.97 52.5441L528.97 43.993L534.401 43.993L534.401 52.5441L539.157 52.5441L539.157 39.3362L540.414 39.3362L544.623 39.3362L545.898 39.3362L545.898 73.0342ZM5.30429e-05 -6.24648e-06L6.10352e-05 182.842L555.258 182.842L555.258 -3.05176e-05L5.30429e-05 -6.24648e-06Z" fill="#F0E4D4"/>
</svg>
